<svg viewBox="0 0 18 18" xmlns="http://www.w3.org/2000/svg">
<path d="M14.25 3H13.5V1.5H12V3H6V1.5H4.5V3H3.75C2.9175 3 2.2575 3.675 2.2575 4.5L2.25 15C2.25 15.825 2.9175 16.5 3.75 16.5H14.25C15.075 16.5 15.75 15.825 15.75 15V4.5C15.75 3.675 15.075 3 14.25 3ZM14.25 15H3.75V7.5H14.25V15ZM14.25 6H3.75V4.5H14.25V6ZM6.75 10.5H5.25V9H6.75V10.5ZM9.75 10.5H8.25V9H9.75V10.5ZM12.75 10.5H11.25V9H12.75V10.5ZM6.75 13.5H5.25V12H6.75V13.5ZM9.75 13.5H8.25V12H9.75V13.5ZM12.75 13.5H11.25V12H12.75V13.5Z" />
</svg>
