<svg viewBox="0 0 17 17" xmlns="http://www.w3.org/2000/svg">
<path d="M14.3843 9.27575C14.4159 9.02242 14.4397 8.76908 14.4397 8.49992C14.4397 8.23075 14.4159 7.97742 14.3843 7.72409L16.0547 6.41783C16.2051 6.29909 16.2447 6.08533 16.1497 5.91117L14.5664 3.172C14.4951 3.04534 14.3605 2.97409 14.218 2.97409C14.1705 2.97409 14.123 2.982 14.0834 2.99784L12.1122 3.7895C11.7005 3.47284 11.2572 3.21159 10.7743 3.01367L10.4734 0.915752C10.4497 0.725752 10.2834 0.583252 10.0855 0.583252H6.91886C6.72094 0.583252 6.55469 0.725752 6.53094 0.915752L6.23011 3.01367C5.74719 3.21159 5.30386 3.48075 4.89219 3.7895L2.92094 2.99784C2.87344 2.982 2.82594 2.97409 2.77844 2.97409C2.64386 2.97409 2.50928 3.04534 2.43803 3.172L0.854692 5.91117C0.751776 6.08533 0.799276 6.29909 0.949692 6.41783L2.62011 7.72409C2.58844 7.97742 2.56469 8.23867 2.56469 8.49992C2.56469 8.76117 2.58844 9.02242 2.62011 9.27575L0.949692 10.582C0.799276 10.7008 0.759692 10.9145 0.854692 11.0887L2.43803 13.8278C2.50928 13.9545 2.64386 14.0258 2.78636 14.0258C2.83386 14.0258 2.88136 14.0178 2.92094 14.002L4.89219 13.2103C5.30386 13.527 5.74719 13.7883 6.23011 13.9862L6.53094 16.0841C6.55469 16.2741 6.72094 16.4166 6.91886 16.4166H10.0855C10.2834 16.4166 10.4497 16.2741 10.4734 16.0841L10.7743 13.9862C11.2572 13.7883 11.7005 13.5191 12.1122 13.2103L14.0834 14.002C14.1309 14.0178 14.1784 14.0258 14.2259 14.0258C14.3605 14.0258 14.4951 13.9545 14.5664 13.8278L16.1497 11.0887C16.2447 10.9145 16.2051 10.7008 16.0547 10.582L14.3843 9.27575ZM12.8168 7.922C12.8484 8.16742 12.8564 8.33367 12.8564 8.49992C12.8564 8.66617 12.8405 8.84033 12.8168 9.07783L12.7059 9.97242L13.4105 10.5266L14.2655 11.1916L13.7114 12.1495L12.7059 11.7458L11.8826 11.4133L11.1701 11.9516C10.8297 12.2049 10.5051 12.3949 10.1805 12.5295L9.34136 12.8699L9.21469 13.7645L9.05636 14.8333H7.94803L7.67094 12.8699L6.83178 12.5295C6.49136 12.387 6.17469 12.2049 5.85803 11.9674L5.13761 11.4133L4.29844 11.7537L3.29303 12.1574L2.73886 11.1995L3.59386 10.5345L4.29844 9.98033L4.18761 9.08575C4.16386 8.84033 4.14803 8.65825 4.14803 8.49992C4.14803 8.34158 4.16386 8.1595 4.18761 7.922L4.29844 7.02742L3.59386 6.47325L2.73886 5.80825L3.29303 4.85034L4.29844 5.25409L5.12178 5.58658L5.83428 5.04825C6.17469 4.79492 6.49928 4.60492 6.82386 4.47034L7.66303 4.12992L7.78969 3.23534L7.94803 2.16659H9.04844L9.32553 4.12992L10.1647 4.47034C10.5051 4.61283 10.8218 4.79492 11.1384 5.03242L11.8589 5.58658L12.698 5.24617L13.7034 4.84242L14.2576 5.80033L13.4105 6.47325L12.7059 7.02742L12.8168 7.922ZM8.50219 5.33325C6.75261 5.33325 5.33553 6.75033 5.33553 8.49992C5.33553 10.2495 6.75261 11.6666 8.50219 11.6666C10.2518 11.6666 11.6689 10.2495 11.6689 8.49992C11.6689 6.75033 10.2518 5.33325 8.50219 5.33325ZM8.50219 10.0833C7.63136 10.0833 6.91886 9.37075 6.91886 8.49992C6.91886 7.62909 7.63136 6.91658 8.50219 6.91658C9.37303 6.91658 10.0855 7.62909 10.0855 8.49992C10.0855 9.37075 9.37303 10.0833 8.50219 10.0833Z" />
</svg>
