<svg viewBox="0 0 19 19" xmlns="http://www.w3.org/2000/svg">
<path d="M9.49967 1.58325C5.12967 1.58325 1.58301 5.12992 1.58301 9.49992C1.58301 13.8699 5.12967 17.4166 9.49967 17.4166C13.8697 17.4166 17.4163 13.8699 17.4163 9.49992C17.4163 5.12992 13.8697 1.58325 9.49967 1.58325ZM5.59676 14.4716C5.93717 13.7591 8.01134 13.0624 9.49967 13.0624C10.988 13.0624 13.0701 13.7591 13.4026 14.4716C12.3259 15.3266 10.9722 15.8333 9.49967 15.8333C8.02717 15.8333 6.67342 15.3266 5.59676 14.4716ZM14.5347 13.3237C13.4026 11.9462 10.6555 11.4791 9.49967 11.4791C8.34384 11.4791 5.59676 11.9462 4.46467 13.3237C3.65717 12.2628 3.16634 10.9408 3.16634 9.49992C3.16634 6.00867 6.00842 3.16659 9.49967 3.16659C12.9909 3.16659 15.833 6.00867 15.833 9.49992C15.833 10.9408 15.3422 12.2628 14.5347 13.3237ZM9.49967 4.74992C7.96384 4.74992 6.72884 5.98492 6.72884 7.52075C6.72884 9.05658 7.96384 10.2916 9.49967 10.2916C11.0355 10.2916 12.2705 9.05658 12.2705 7.52075C12.2705 5.98492 11.0355 4.74992 9.49967 4.74992ZM9.49967 8.70825C8.84259 8.70825 8.31217 8.17783 8.31217 7.52075C8.31217 6.86367 8.84259 6.33325 9.49967 6.33325C10.1568 6.33325 10.6872 6.86367 10.6872 7.52075C10.6872 8.17783 10.1568 8.70825 9.49967 8.70825Z" />
</svg>
